# xmcd
#
# Track frame offsets: 
#        150
#        18390
#        34728
#        50822
#        67321
#
# Disc length: 1102 seconds
#
# Revision: 0
# Processed by: cddbd v1.5.2PL0 Copyright (c) Steve Scherf et al.
# Submitted via: ExactAudioCopy v0.99pb3
#
DISCID=46044c05
DTITLE=Della Ridge - Bulletproof EP
DYEAR=2008
DGENRE=Country
TTITLE0=Reloaded
TTITLE1=Will there be another year
TTITLE2=Bulletproof
TTITLE3=She's the woman
TTITLE4=The way it's gonna be
EXTD=
EXTT0=
EXTT1=
EXTT2=
EXTT3=
EXTT4=
PLAYORDER=
